Patient4_TMGait_0pt4_02_right_36_EMG.mot
version=1
nRows=33
nColumns=33
inDegrees=no
endheader
time	1LAddLong	2LGlutMax	3LGlutMed	4LIliopsoas	5LSemiMemb	6LBicFemLong	7LRecFem	8LVastMed	9LVastLat	10LGasMed	11LTibAnt	12lTibPost	13LPeroneusLong	14LSol	15LExtDigLong	16LFlexDigLong	17RAddLong	18RGlutMax	19RGlutMed	20RIliopsoas	21RSemiMemb	22RBicFemLong	23RRecFem	24RVastMed	25RVastLat	26RGasMed	27RTibAnt	28RTibPost	29RPeroneusLong	30RSol	31RExtDigLong	32RFlexDigLong
48.898	0.014038	-0.15289	0.11612	0.015564	0.033417	-0.028229	0.081024	0.007477	-0.215	-0.052795	-0.077057	0.006714	-0.16052	0.21469	-0.11154	0.006104	0.011902	-0.067444	-0.070038	-0.014343	-0.1799	0.075226	0.024109	-0.10284	-0.003357	0.002899	-0.010834	-0.000916	-0.47501	-0.065155	0.000458	0.005035
48.899	0.011444	-0.13641	0.10147	0.009918	0.019073	-0.043182	0.050049	0.016022	-0.09552	-0.001984	0.053406	0.00824	-0.12528	0.12283	0.00824	-0.000305	-0.038605	-0.061798	-0.006561	-0.008087	0.012207	0.058746	-0.02121	-0.049438	0.015717	-0.010681	0.05249	-0.002747	-0.60821	-0.064087	0.005188	0.009613
48.9	-0.000153	-0.13504	0.006256	0.006409	0.00885	-0.017548	-0.022278	0.009766	0.11581	0.001068	0.097351	0.006714	-0.10483	0.066681	-0.002136	0.002289	-0.056	-0.030823	0.017853	0.01297	0.16159	-0.031433	-0.008087	-0.029297	0.005493	-0.013123	0.15045	-0.002747	-0.09903	-0.001678	-0.000763	0.007172
48.901	0.007477	-0.12711	-0.057068	0.015869	-0.010834	-0.016937	-0.091705	0.002441	0.20874	-0.001984	0.089417	0.011597	-0.013123	0.08606	0.020447	0.00946	-0.052795	-0.037384	0.089264	-0.088654	0.19058	-0.04837	0.001831	-0.017395	0.01358	-0.012817	0.15579	-0.008087	0.35507	0.04425	-0.000305	0.013275
48.902	0.011444	-0.11093	-0.10483	0.006561	-0.006256	0.004272	-0.093231	-0.015259	0.15762	0.049133	0.062714	0.009766	0.063019	0.080719	0.048218	-0.007629	-0.04303	-0.032501	-0.09964	-0.24597	0.06485	-0.039368	-0.034332	-0.044098	0.007324	-0.011597	0.15274	-0.005646	0.30823	0.052795	0.000458	0.012207
48.903	0.016785	-0.093384	-0.034027	-0.01358	0.022736	0.00824	-0.025482	-0.016785	0.072784	0.067444	-0.085297	0.006866	-0.10635	0.041656	0.037689	0.013885	-0.023193	-0.027161	-0.050354	-0.18784	-0.007782	-0.015259	-0.031128	0.014191	0.006104	-0.012054	-0.086365	-0.007019	0.25772	0.02121	0.001526	0.005646
48.904	0.006866	-0.10956	0.031128	0.001221	0.025482	0.02243	0.012207	-0.004578	0.074615	0.050659	-0.066681	0.008087	-0.15137	0.093842	0.086823	-0.001221	-0.005493	-0.08316	-0.018005	-0.024109	-0.00946	0.026245	-0.012817	-0.029755	0.003662	-0.001984	-0.25635	-0.003204	0.26398	-0.012054	-0.002289	0.008545
48.905	0.001373	-0.10681	-0.049591	0.022278	0.016327	0.019989	0.027161	-0.006714	0.057983	0.012207	-0.022583	0.003052	-0.033875	0.086365	0.01297	0.012207	0.015564	-0.045471	-0.15121	0.076447	-0.006409	0.005493	-0.00885	-0.034332	-0.007324	-0.00412	-0.066528	-0.004883	0.19745	-0.016327	0.001221	0.004883
48.906	0.009308	-0.12619	-0.20462	0.007172	0.028381	0.003052	0.01236	-0.000153	0.026398	-0.002899	-0.000305	0.005035	0.15091	-0.043488	-0.15228	0.007782	0.018616	-0.052948	-0.15823	0.20233	0.016785	-0.014954	-0.027313	-0.024109	0.007019	-0.010071	0.17487	-0.004883	0.092316	-0.016785	0.001068	-0.005646
48.907	0.002747	-0.097198	-0.086365	-0.000916	0.020752	-0.006561	0.030518	0.002136	0.028229	0.005341	0.040588	0.002594	0.040436	-0.067902	-0.032349	0.018768	0.001526	-0.01709	-0.060883	0.34271	-0.053101	-0.035706	-0.064545	-0.003357	0.006256	-0.010223	0.17044	-0.003357	0.014038	0.000153	0.002441	-0.005188
48.908	0.006104	-0.066681	0.16205	0.013428	0.026398	0.006256	0.037231	0.005035	0.015259	-0.002289	0.049286	0.005188	0.006256	-0.058441	0.22812	0.007019	0.018616	-0.058746	-0.041046	0.26154	-0.10651	-0.036011	-0.068817	-0.033264	0.003662	-0.007782	0.029144	-0.004883	0.034027	0.003967	-0.002441	-0.000305
48.909	0.007477	-0.057983	0.009308	0.039215	0.011444	0	0.00885	0.002441	0.03006	-0.023804	0.055542	0.006256	0.28931	-0.086823	0.21484	0.001373	0.009308	-0.056	-0.071716	-0.026245	-0.13062	-0.035095	-0.029297	-0.061951	0.010376	-0.004425	-0.072632	-0.005646	0.075073	-0.023956	-0.00061	0.00351
48.91	0.012512	-0.1059	-0.13016	0.03006	0.011902	-0.02594	0.010834	0.006866	0.025024	-0.009918	-0.020142	0.004425	-0.007324	0.061035	0.16327	0.000763	0.002136	-0.022736	-0.055084	-0.08606	-0.11261	-0.03479	-0.047913	-0.023193	0.032654	-0.011139	0.099335	-0.005035	0.041199	-0.021667	-0.000763	-0.010529
48.911	0.000305	-0.097351	-0.081787	0.012512	0.013885	-0.038757	0.019836	0.000458	0.012512	-0.030212	-0.019073	0.000916	-0.46066	0.12787	0.10727	-0.008698	0.003204	-0.040131	-0.17716	-0.007477	-0.0354	0.005798	-0.035095	-0.07309	0.019684	-0.009155	0.26932	-0.007477	-0.008698	-0.005035	-0.006561	0.002594
48.912	0.010223	-0.068359	-0.036316	0.001526	0.011902	-0.027313	0.035706	0.001831	0.006561	-0.016022	-0.056458	0.006256	0.19134	0.017242	-0.22324	-0.011444	-0.006714	-0.056763	-0.2681	0.079956	0.11231	0.006256	-0.040741	-0.028839	0.018005	-0.013733	0.36499	-0.001373	-0.0914	-0.033875	-0.004425	0.002136
48.913	-0.001984	-0.060883	-0.046387	0.01358	0.015564	-0.00824	0.049896	0.000763	0.038452	-0.001526	-0.086365	0.002441	0.50278	-0.070496	0.38681	-0.010986	-0.010376	-0.0737	-0.17609	0.18494	0.055542	-0.000916	-0.036469	-0.020599	0.023346	-0.010681	0.39002	-0.002747	-0.049591	-0.014496	-0.001221	-0.010071
48.914	0.00412	-0.071411	0.081024	0.042419	0.012512	-0.00351	0.033875	-0.001678	0.049133	0.005341	-0.12253	0.005798	0.1239	0.049896	0.36057	0.003662	-0.016327	-0.051422	0.041809	0.13336	-0.015106	0.022125	-0.000305	-0.044403	0.011444	-0.011902	0.037079	-0.006561	0.017395	-0.031281	-0.001373	0.003204
48.915	-0.000305	-0.047607	0.19287	0.012054	0.019226	0.023956	0.027924	0.006409	0.064087	0.000763	0.001068	0.003662	-0.044861	0.21286	0.007935	0.000305	-0.00946	-0.036163	0.14435	-0.013123	0.033569	0.003204	-0.040131	-0.012665	0.004425	-0.005951	-0.59982	-0.002594	0.18707	-0.066223	-0.005341	-0.001373
48.916	0.00824	-0.058441	0.1384	0.01709	0.027618	0.053864	0.066223	0.004272	0.040894	-0.044403	0.21622	0.00412	0.18112	0.16708	-0.44647	0.005951	-0.003815	-0.02533	-0.23758	-0.009918	0.011292	0.02655	-0.031891	-0.054779	-0.001221	-0.001831	-0.25559	-0.002441	0.26077	-0.054932	-0.003357	-0.003815
48.917	0.010223	-0.059967	0.030975	0.019684	0.015106	0.029907	0.074005	0.006409	0.0354	-0.05127	0.23605	0.004272	0.11276	-0.044861	-0.27924	-0.002289	0.011597	-0.048218	-0.65948	0.011139	-0.009308	0.046692	-0.022278	-0.025635	-0.015411	-0.007935	0.092621	-0.004425	0.075378	-0.013428	0.001221	-0.003967
48.918	0.008698	-0.030975	-0.087433	0.015717	0.00946	0.024567	0.075989	0.002594	0.019379	-0.071106	0.072784	0.00412	-0.13809	-0.2182	-0.45624	-0.00061	0.015106	0.033264	-0.26855	-0.071411	-0.00824	0.079041	-0.04425	-0.058136	-0.008087	-0.003967	0.11108	-0.005798	0.26794	0.030212	-0.007629	-0.005646
48.919	0.003204	-0.027771	0.061951	0.014496	0.006409	-0.001678	0.053864	0.003662	-0.007172	-0.048218	-0.023193	0.003204	-0.33386	-0.26627	-0.45517	-0.001984	0.022888	0.036163	0.31418	-0.057526	-0.003052	0.077209	-0.036774	-0.068512	0.001068	-0.012207	0.14526	-0.005035	-0.3569	-0.019989	-0.003052	-0.011292
48.92	0.013275	-0.033264	0.27405	-0.005798	0.014648	-0.024872	0.038757	0.005646	-0.005646	0.010376	-0.19211	0.011902	-0.21576	-0.22217	-0.15289	0.01297	0.018616	0.027771	0.56747	-0.044556	-0.021973	0.078125	-0.033875	-0.070648	-0.003967	0.000153	-0.03418	-0.006256	-0.19806	-0.036621	-0.002136	0.000916
48.921	0.016785	-0.046844	0.20859	0.023956	0.032196	-0.013123	0.009003	0.000153	0.065613	0.012817	-0.29785	-0.001526	-0.17822	-0.010986	-0.011749	0.007935	0.016632	-0.071564	0.21469	-0.043945	-0.13809	0.087128	-0.028381	-0.095215	-0.021515	-0.008545	-0.14191	-0.008698	0.033417	-0.004272	0	0.002594
48.922	0.002289	-0.048676	0.19134	0.016327	0.029602	0.005341	-0.00351	0.007324	0.063477	0.006561	-0.20615	-0.004272	0.35263	-0.12726	0.088196	0.006104	0.026093	-0.054779	0.15259	-0.021362	-0.2948	0.076752	-0.016632	-0.10361	-0.002441	-0.00824	-0.11597	-0.007019	0.12772	0.013275	-0.001373	0.002441
48.923	0.005188	-0.066681	0.15518	0.000458	0.013885	0.019531	-0.050507	0.015106	0.027771	-0.010376	-0.032654	0.008698	0.024719	-0.13428	0.10147	0.003357	0.023499	-0.08606	-0.030365	-0.028534	-0.3392	0.11765	-0.007477	-0.13382	-0.007172	-0.007629	-0.2182	-0.005035	-0.078583	0.00885	0.001831	0.004883
48.924	0.005035	-0.042419	0.067596	0.003204	-0.03479	0.042877	-0.045319	0.008545	0.032043	-0.011444	0.13825	0.005188	0.36407	-0.084839	-0.029297	0.010529	0.005798	-0.10437	-0.18951	0.00885	-0.16327	0.11078	-0.069275	-0.08667	-0.016174	-0.000763	-0.20889	-0.001373	-0.21164	-0.004578	-0.000763	0.000916
48.925	0.001984	-0.077972	-0.001221	0.014648	-0.080261	-0.017395	0.006561	0.006866	0.028992	-0.010681	0.045929	0.015411	0.58548	-0.061493	0.121	0.006866	-0.005951	-0.11032	-0.18967	-0.016022	0.32501	0.10315	-0.071259	-0.06485	-0.010986	-0.001068	-0.1004	-0.004425	-0.4512	-0.043793	-0.000763	0.003815
48.926	0.007782	-0.046692	-0.040131	0.018311	-0.079651	-0.089874	0.018463	0.007935	0.018768	-0.048676	-0.059204	-0.013733	0.023804	-0.06012	0.17639	-0.024567	-0.019226	-0.056	-0.29068	-0.006714	0.25757	0.090332	-0.094147	-0.001984	-0.000458	-0.001068	0.006714	-0.000458	-0.63385	-0.053406	-0.000916	0.004578
48.927	-0.004272	-0.010681	-0.013885	0.013733	0.036163	-0.098267	0.011292	-0.008545	0.038147	-0.070801	0.009003	-0.003357	-0.36423	-0.16632	0.10071	0.02533	-0.031281	-0.053406	-0.13718	-0.036163	0.1329	0.14038	-0.099945	0.047455	0	-0.001373	0.05127	0.003815	-0.15656	-0.024261	-0.000153	0.004883
48.928	0.004578	-0.031433	0.099487	-0.005951	0.083008	-0.054169	0.001831	0.006714	0.016022	-0.087585	0.079346	-0.003204	-0.11047	-0.061646	0.11185	-0.001068	0.00473	-0.031891	0.49133	-0.078583	0.06897	0.1471	-0.033417	-0.013428	0.002899	-0.001984	-0.001068	-0.003815	0.35934	0.013275	0.000916	0.011292
48.929	0.006866	-0.052338	0.063629	0.009766	0.070343	-0.03067	0.046082	0.007629	0.00351	-0.10178	0.10651	0.014038	0.072632	0.021057	0.29343	-0.01236	0.024109	-0.10986	0.40436	-0.012207	0.005035	0.14221	-0.009918	-0.081329	-0.012665	-0.009003	-0.013123	-0.003204	0.86853	0.049438	-0.004425	0.015717
48.93	0.010681	-0.089264	0.05188	0.018158	0.043945	0.010223	0.05188	0.002441	-0.007172	-0.14191	0.038605	0.013275	0.10742	0.091248	0.19516	0.017548	0.046997	-0.093536	0.27023	-0.04364	-0.083618	0.11841	-0.094757	-0.098724	-0.010529	-0.011902	-0.028839	-0.002899	0.51056	0.05722	-0.00351	0.015411
